# Blender 5.1.1
# www.blender.org
mtllib hands.mtl
o Zetal_Blaster
v -0.050000 -0.075000 0.300000
v -0.050000 0.075000 0.300000
v -0.050000 -0.075000 -0.300000
v -0.050000 0.075000 -0.300000
v 0.050000 -0.075000 0.300000
v 0.050000 0.075000 0.300000
v 0.050000 -0.075000 -0.300000
v 0.050000 0.075000 -0.300000
v 0.000000 0.060001 0.200000
v 0.000000 0.059999 1.000000
v 0.007804 0.059233 0.200000
v 0.007804 0.059230 1.000000
v 0.015307 0.056957 0.200000
v 0.015307 0.056954 1.000000
v 0.022223 0.053260 0.200000
v 0.022223 0.053257 1.000000
v 0.028284 0.048286 0.200000
v 0.028284 0.048283 1.000000
v 0.033259 0.042224 0.200000
v 0.033259 0.042221 1.000000
v 0.036955 0.035309 0.200000
v 0.036955 0.035306 1.000000
v 0.039231 0.027805 0.200000
v 0.039231 0.027802 1.000000
v 0.040000 0.020001 0.200000
v 0.040000 0.019999 1.000000
v 0.039231 0.012198 0.200000
v 0.039231 0.012195 1.000000
v 0.036955 0.004694 0.200000
v 0.036955 0.004691 1.000000
v 0.033259 -0.002221 0.200000
v 0.033259 -0.002224 1.000000
v 0.028284 -0.008283 0.200000
v 0.028284 -0.008286 1.000000
v 0.022223 -0.013257 0.200000
v 0.022223 -0.013260 1.000000
v 0.015307 -0.016954 0.200000
v 0.015307 -0.016957 1.000000
v 0.007804 -0.019230 0.200000
v 0.007804 -0.019233 1.000000
v 0.000000 -0.019999 0.200000
v 0.000000 -0.020001 1.000000
v -0.007804 -0.019230 0.200000
v -0.007804 -0.019233 1.000000
v -0.015307 -0.016954 0.200000
v -0.015307 -0.016957 1.000000
v -0.022223 -0.013257 0.200000
v -0.022223 -0.013260 1.000000
v -0.028284 -0.008283 0.200000
v -0.028284 -0.008286 1.000000
v -0.033259 -0.002221 0.200000
v -0.033259 -0.002224 1.000000
v -0.036955 0.004694 0.200000
v -0.036955 0.004691 1.000000
v -0.039231 0.012198 0.200000
v -0.039231 0.012195 1.000000
v -0.040000 0.020001 0.200000
v -0.040000 0.019999 1.000000
v -0.039231 0.027805 0.200000
v -0.039231 0.027802 1.000000
v -0.036955 0.035309 0.200000
v -0.036955 0.035306 1.000000
v -0.033259 0.042224 0.200000
v -0.033259 0.042221 1.000000
v -0.028284 0.048286 0.200000
v -0.028284 0.048283 1.000000
v -0.022223 0.053260 0.200000
v -0.022223 0.053257 1.000000
v -0.015307 0.056957 0.200000
v -0.015307 0.056954 1.000000
v -0.007804 0.059233 0.200000
v -0.007804 0.059230 1.000000
v -0.040000 -0.337409 -0.101329
v -0.040000 -0.092392 -0.051661
v -0.040000 -0.307608 -0.248339
v -0.040000 -0.062591 -0.198671
v 0.040000 -0.337409 -0.101329
v 0.040000 -0.092392 -0.051661
v 0.040000 -0.307608 -0.248339
v 0.040000 -0.062591 -0.198671
vn -1.0000 -0.0000 -0.0000
vn -0.0000 -0.0000 -1.0000
vn 1.0000 -0.0000 -0.0000
vn -0.0000 -0.0000 1.0000
vn -0.0000 -1.0000 -0.0000
vn -0.0000 1.0000 -0.0000
vn 0.0980 0.9952 -0.0000
vn 0.2903 0.9569 -0.0000
vn 0.4714 0.8819 -0.0000
vn 0.6344 0.7730 -0.0000
vn 0.7730 0.6344 -0.0000
vn 0.8819 0.4714 -0.0000
vn 0.9569 0.2903 -0.0000
vn 0.9952 0.0980 -0.0000
vn 0.9952 -0.0980 -0.0000
vn 0.9569 -0.2903 -0.0000
vn 0.8819 -0.4714 -0.0000
vn 0.7730 -0.6344 -0.0000
vn 0.6344 -0.7730 -0.0000
vn 0.4714 -0.8819 -0.0000
vn 0.2903 -0.9569 -0.0000
vn 0.0980 -0.9952 -0.0000
vn -0.0980 -0.9952 -0.0000
vn -0.2903 -0.9569 -0.0000
vn -0.4714 -0.8819 -0.0000
vn -0.6344 -0.7730 -0.0000
vn -0.7730 -0.6344 -0.0000
vn -0.8819 -0.4714 -0.0000
vn -0.9569 -0.2903 -0.0000
vn -0.9952 -0.0980 -0.0000
vn -0.9952 0.0980 -0.0000
vn -0.9569 0.2903 -0.0000
vn -0.8819 0.4714 -0.0000
vn -0.7730 0.6344 -0.0000
vn -0.6344 0.7730 -0.0000
vn -0.4714 0.8819 -0.0000
vn -0.2903 0.9569 -0.0000
vn -0.0980 0.9952 -0.0000
vn -0.0000 0.1987 -0.9801
vn -0.0000 -0.1987 0.9801
vn -0.0000 -0.9801 -0.1987
vn -0.0000 0.9801 0.1987
vt 0.625000 0.000000
vt 0.375000 0.250000
vt 0.375000 0.000000
vt 0.625000 0.250000
vt 0.375000 0.500000
vt 0.625000 0.500000
vt 0.375000 0.750000
vt 0.625000 0.750000
vt 0.375000 1.000000
vt 0.125000 0.750000
vt 0.125000 0.500000
vt 0.875000 0.500000
vt 1.000000 1.000000
vt 0.968750 0.500000
vt 1.000000 0.500000
vt 0.968750 1.000000
vt 0.937500 0.500000
vt 0.937500 1.000000
vt 0.906250 0.500000
vt 0.906250 1.000000
vt 0.875000 1.000000
vt 0.843750 0.500000
vt 0.843750 1.000000
vt 0.812500 0.500000
vt 0.812500 1.000000
vt 0.781250 0.500000
vt 0.781250 1.000000
vt 0.750000 0.500000
vt 0.750000 1.000000
vt 0.718750 0.500000
vt 0.718750 1.000000
vt 0.687500 0.500000
vt 0.687500 1.000000
vt 0.656250 0.500000
vt 0.656250 1.000000
vt 0.625000 1.000000
vt 0.593750 0.500000
vt 0.593750 1.000000
vt 0.562500 0.500000
vt 0.562500 1.000000
vt 0.531250 0.500000
vt 0.531250 1.000000
vt 0.500000 0.500000
vt 0.468750 1.000000
vt 0.468750 0.500000
vt 0.437500 1.000000
vt 0.437500 0.500000
vt 0.406250 1.000000
vt 0.406250 0.500000
vt 0.343750 1.000000
vt 0.343750 0.500000
vt 0.312500 1.000000
vt 0.312500 0.500000
vt 0.281250 1.000000
vt 0.281250 0.500000
vt 0.250000 1.000000
vt 0.250000 0.500000
vt 0.218750 1.000000
vt 0.218750 0.500000
vt 0.187500 1.000000
vt 0.187500 0.500000
vt 0.156250 1.000000
vt 0.156250 0.500000
vt 0.125000 1.000000
vt 0.093750 1.000000
vt 0.093750 0.500000
vt 0.062500 1.000000
vt 0.062500 0.500000
vt 0.419706 0.419706
vt 0.383337 0.449553
vt 0.419706 0.080294
vt 0.031250 1.000000
vt 0.031250 0.500000
vt 0.000000 1.000000
vt 0.000000 0.500000
vt 0.616663 0.449553
vt 0.658156 0.471731
vt 0.616663 0.050447
vt 0.875000 0.750000
vt 0.500000 1.000000
vt 0.341844 0.471731
vt 0.296822 0.485388
vt 0.296822 0.014612
vt 0.250000 0.490000
vt 0.250000 0.010000
vt 0.203178 0.485388
vt 0.203178 0.014612
vt 0.158156 0.471731
vt 0.158156 0.028269
vt 0.116663 0.449553
vt 0.080294 0.419706
vt 0.116663 0.050447
vt 0.050447 0.383337
vt 0.080294 0.080294
vt 0.028269 0.341844
vt 0.050447 0.116663
vt 0.014612 0.296822
vt 0.014612 0.203178
vt 0.010000 0.250000
vt 0.028269 0.158156
vt 0.341844 0.028269
vt 0.383337 0.050447
vt 0.449553 0.116663
vt 0.471731 0.158156
vt 0.449553 0.383337
vt 0.485388 0.203178
vt 0.471731 0.341844
vt 0.490000 0.250000
vt 0.485388 0.296822
vt 0.703178 0.485388
vt 0.750000 0.490000
vt 0.750000 0.010000
vt 0.796822 0.485388
vt 0.796822 0.014612
vt 0.841844 0.471731
vt 0.883337 0.449553
vt 0.841844 0.028269
vt 0.919706 0.419706
vt 0.919706 0.080294
vt 0.949553 0.383337
vt 0.949553 0.116663
vt 0.971731 0.341844
vt 0.985388 0.296822
vt 0.971731 0.158156
vt 0.990000 0.250000
vt 0.985388 0.203178
vt 0.883337 0.050447
vt 0.703178 0.014612
vt 0.658156 0.028269
vt 0.580294 0.080294
vt 0.580294 0.419706
vt 0.550447 0.116663
vt 0.550447 0.383337
vt 0.528269 0.158156
vt 0.514612 0.203178
vt 0.528269 0.341844
vt 0.510000 0.250000
vt 0.514612 0.296822
s 0
f 2/1/1 3/2/1 1/3/1
f 4/4/2 7/5/2 3/2/2
f 8/6/3 5/7/3 7/5/3
f 6/8/4 1/9/4 5/7/4
f 7/5/5 1/10/5 3/11/5
f 4/12/6 6/8/6 8/6/6
f 10/13/7 11/14/7 9/15/7
f 12/16/8 13/17/8 11/14/8
f 14/18/9 15/19/9 13/17/9
f 16/20/10 17/12/10 15/19/10
f 18/21/11 19/22/11 17/12/11
f 20/23/12 21/24/12 19/22/12
f 22/25/13 23/26/13 21/24/13
f 24/27/14 25/28/14 23/26/14
f 26/29/15 27/30/15 25/28/15
f 28/31/16 29/32/16 27/30/16
f 30/33/17 31/34/17 29/32/17
f 32/35/18 33/6/18 31/34/18
f 34/36/19 35/37/19 33/6/19
f 36/38/20 37/39/20 35/37/20
f 38/40/21 39/41/21 37/39/21
f 40/42/22 41/43/22 39/41/22
f 41/43/23 44/44/23 43/45/23
f 43/45/24 46/46/24 45/47/24
f 45/47/25 48/48/25 47/49/25
f 47/49/26 50/9/26 49/5/26
f 49/5/27 52/50/27 51/51/27
f 51/51/28 54/52/28 53/53/28
f 53/53/29 56/54/29 55/55/29
f 55/55/30 58/56/30 57/57/30
f 57/57/31 60/58/31 59/59/31
f 59/59/32 62/60/32 61/61/32
f 61/61/33 64/62/33 63/63/33
f 63/63/34 66/64/34 65/11/34
f 65/11/35 68/65/35 67/66/35
f 67/66/36 70/67/36 69/68/36
f 18/69/4 16/70/4 34/71/4
f 69/68/37 72/72/37 71/73/37
f 71/73/38 10/74/38 9/75/38
f 67/76/2 69/77/2 47/78/2
f 74/1/1 75/2/1 73/3/1
f 76/4/39 79/5/39 75/2/39
f 79/5/3 78/8/3 77/7/3
f 78/8/40 73/9/40 77/7/40
f 79/5/41 73/10/41 75/11/41
f 76/12/42 78/8/42 80/6/42
f 2/1/1 4/4/1 3/2/1
f 4/4/2 8/6/2 7/5/2
f 8/6/3 6/8/3 5/7/3
f 6/8/4 2/36/4 1/9/4
f 7/5/5 5/7/5 1/10/5
f 4/12/6 2/79/6 6/8/6
f 10/13/7 12/16/7 11/14/7
f 12/16/8 14/18/8 13/17/8
f 14/18/9 16/20/9 15/19/9
f 16/20/10 18/21/10 17/12/10
f 18/21/11 20/23/11 19/22/11
f 20/23/12 22/25/12 21/24/12
f 22/25/13 24/27/13 23/26/13
f 24/27/14 26/29/14 25/28/14
f 26/29/15 28/31/15 27/30/15
f 28/31/16 30/33/16 29/32/16
f 30/33/17 32/35/17 31/34/17
f 32/35/18 34/36/18 33/6/18
f 34/36/19 36/38/19 35/37/19
f 36/38/20 38/40/20 37/39/20
f 38/40/21 40/42/21 39/41/21
f 40/42/22 42/80/22 41/43/22
f 41/43/23 42/80/23 44/44/23
f 43/45/24 44/44/24 46/46/24
f 45/47/25 46/46/25 48/48/25
f 47/49/26 48/48/26 50/9/26
f 49/5/27 50/9/27 52/50/27
f 51/51/28 52/50/28 54/52/28
f 53/53/29 54/52/29 56/54/29
f 55/55/30 56/54/30 58/56/30
f 57/57/31 58/56/31 60/58/31
f 59/59/32 60/58/32 62/60/32
f 61/61/33 62/60/33 64/62/33
f 63/63/34 64/62/34 66/64/34
f 65/11/35 66/64/35 68/65/35
f 67/66/36 68/65/36 70/67/36
f 14/81/4 12/82/4 40/83/4
f 12/82/4 10/84/4 42/85/4
f 10/84/4 72/86/4 44/87/4
f 72/86/4 70/88/4 46/89/4
f 70/88/4 68/90/4 46/89/4
f 68/90/4 66/91/4 48/92/4
f 46/89/4 68/90/4 48/92/4
f 66/91/4 64/93/4 50/94/4
f 64/93/4 62/95/4 52/96/4
f 50/94/4 64/93/4 52/96/4
f 62/95/4 60/97/4 56/98/4
f 60/97/4 58/99/4 56/98/4
f 56/98/4 54/100/4 62/95/4
f 54/100/4 52/96/4 62/95/4
f 50/94/4 48/92/4 66/91/4
f 46/89/4 44/87/4 72/86/4
f 44/87/4 42/85/4 10/84/4
f 42/85/4 40/83/4 12/82/4
f 40/83/4 38/101/4 14/81/4
f 38/101/4 36/102/4 14/81/4
f 36/102/4 34/71/4 16/70/4
f 14/81/4 36/102/4 16/70/4
f 34/71/4 32/103/4 18/69/4
f 32/103/4 30/104/4 20/105/4
f 18/69/4 32/103/4 20/105/4
f 30/104/4 28/106/4 22/107/4
f 28/106/4 26/108/4 24/109/4
f 22/107/4 28/106/4 24/109/4
f 22/107/4 20/105/4 30/104/4
f 69/68/37 70/67/37 72/72/37
f 71/73/38 72/72/38 10/74/38
f 71/110/2 9/111/2 41/112/2
f 9/111/2 11/113/2 39/114/2
f 11/113/2 13/115/2 39/114/2
f 13/115/2 15/116/2 37/117/2
f 39/114/2 13/115/2 37/117/2
f 15/116/2 17/118/2 33/119/2
f 17/118/2 19/120/2 31/121/2
f 19/120/2 21/122/2 31/121/2
f 21/122/2 23/123/2 29/124/2
f 31/121/2 21/122/2 29/124/2
f 23/123/2 25/125/2 27/126/2
f 27/126/2 29/124/2 23/123/2
f 31/121/2 33/119/2 17/118/2
f 33/119/2 35/127/2 15/116/2
f 35/127/2 37/117/2 15/116/2
f 39/114/2 41/112/2 9/111/2
f 41/112/2 43/128/2 71/110/2
f 43/128/2 45/129/2 71/110/2
f 45/129/2 47/78/2 69/77/2
f 71/110/2 45/129/2 69/77/2
f 47/78/2 49/130/2 65/131/2
f 49/130/2 51/132/2 63/133/2
f 51/132/2 53/134/2 63/133/2
f 53/134/2 55/135/2 61/136/2
f 63/133/2 53/134/2 61/136/2
f 55/135/2 57/137/2 59/138/2
f 59/138/2 61/136/2 55/135/2
f 63/133/2 65/131/2 49/130/2
f 65/131/2 67/76/2 47/78/2
f 74/1/1 76/4/1 75/2/1
f 76/4/39 80/6/39 79/5/39
f 79/5/3 80/6/3 78/8/3
f 78/8/40 74/36/40 73/9/40
f 79/5/41 77/7/41 73/10/41
f 76/12/42 74/79/42 78/8/42
